<?xml version="1.0" encoding="UTF-8"?>
<svg xmlns="http://www.w3.org/2000/svg" version="1.1" width="300" height="300" viewBox="0 0 300 300"><rect x="0" y="0" width="300" height="300" fill="#ffffff"/><g transform="scale(12)"><g transform="translate(0,0)"><path fill-rule="evenodd" d="M8 0L8 1L9 1L9 2L8 2L8 5L9 5L9 4L11 4L11 5L10 5L10 10L8 10L8 11L7 11L7 10L6 10L6 11L7 11L7 12L4 12L4 11L3 11L3 9L4 9L4 10L5 10L5 9L4 9L4 8L0 8L0 9L1 9L1 10L2 10L2 11L0 11L0 12L2 12L2 14L1 14L1 15L0 15L0 16L1 16L1 15L2 15L2 14L3 14L3 16L2 16L2 17L3 17L3 16L4 16L4 15L5 15L5 14L6 14L6 15L7 15L7 16L5 16L5 17L7 17L7 16L8 16L8 14L10 14L10 13L11 13L11 15L10 15L10 17L11 17L11 16L12 16L12 17L13 17L13 16L12 16L12 14L13 14L13 15L14 15L14 18L13 18L13 21L15 21L15 16L16 16L16 21L17 21L17 22L14 22L14 23L11 23L11 21L10 21L10 20L9 20L9 21L8 21L8 25L12 25L12 24L15 24L15 23L19 23L19 24L17 24L17 25L25 25L25 24L23 24L23 23L24 23L24 22L25 22L25 21L23 21L23 23L22 23L22 22L21 22L21 21L22 21L22 18L23 18L23 19L24 19L24 20L25 20L25 18L23 18L23 17L25 17L25 16L22 16L22 17L21 17L21 16L19 16L19 15L20 15L20 14L21 14L21 15L24 15L24 14L25 14L25 12L24 12L24 11L21 11L21 10L23 10L23 8L20 8L20 9L19 9L19 11L18 11L18 8L17 8L17 6L16 6L16 7L15 7L15 5L17 5L17 4L15 4L15 1L14 1L14 2L13 2L13 0L12 0L12 1L11 1L11 0L10 0L10 1L9 1L9 0ZM16 0L16 2L17 2L17 0ZM11 2L11 4L12 4L12 3L13 3L13 2ZM12 5L12 6L11 6L11 8L12 8L12 6L13 6L13 8L14 8L14 11L11 11L11 13L12 13L12 12L13 12L13 14L14 14L14 15L16 15L16 16L18 16L18 15L16 15L16 13L17 13L17 10L16 10L16 9L15 9L15 8L14 8L14 5ZM8 6L8 7L9 7L9 6ZM6 8L6 9L7 9L7 8ZM8 8L8 9L9 9L9 8ZM24 8L24 9L25 9L25 8ZM11 9L11 10L12 10L12 9ZM20 9L20 10L21 10L21 9ZM2 11L2 12L3 12L3 13L4 13L4 14L5 14L5 13L4 13L4 12L3 12L3 11ZM8 11L8 12L7 12L7 13L6 13L6 14L8 14L8 13L9 13L9 11ZM15 11L15 12L14 12L14 14L15 14L15 12L16 12L16 11ZM19 12L19 13L21 13L21 14L22 14L22 13L21 13L21 12ZM23 12L23 13L24 13L24 12ZM8 17L8 18L9 18L9 19L11 19L11 20L12 20L12 19L11 19L11 18L9 18L9 17ZM17 17L17 20L20 20L20 17ZM18 18L18 19L19 19L19 18ZM19 21L19 23L20 23L20 24L21 24L21 23L20 23L20 21ZM9 22L9 24L11 24L11 23L10 23L10 22ZM0 0L0 7L7 7L7 0ZM1 1L1 6L6 6L6 1ZM2 2L2 5L5 5L5 2ZM18 0L18 7L25 7L25 0ZM19 1L19 6L24 6L24 1ZM20 2L20 5L23 5L23 2ZM0 18L0 25L7 25L7 18ZM1 19L1 24L6 24L6 19ZM2 20L2 23L5 23L5 20Z" fill="#000000"/></g></g></svg>
